<svg xmlns="http://www.w3.org/2000/svg" width="23" height="23" fill="none"><g clip-path="url(#a)"><path fill="#543A8F" fill-rule="evenodd" d="M10.663 19.687h6.447a1.814 1.814 0 0 0 1.292-.54c.343-.346.535-.814.534-1.302v-6.5l3.286-3.313v9.813a5.19 5.19 0 0 1-1.496 3.645A5.08 5.08 0 0 1 17.11 23H7.374l3.288-3.313h.001ZM11.56 3.81H5.115a1.813 1.813 0 0 0-1.292.539 1.842 1.842 0 0 0-.534 1.302v6.5L0 15.464V5.651c0-1.367.539-2.678 1.498-3.645A5.093 5.093 0 0 1 5.114.496h9.733l-3.286 3.313-.001.001Z" clip-rule="evenodd"/><path fill="#41D881" d="M18.984 7.63c2.09 0 3.784-1.708 3.784-3.815S21.074 0 18.984 0s-3.785 1.708-3.785 3.815 1.695 3.815 3.785 3.815Z"/></g><defs><clipPath id="a"><path fill="#fff" d="M0 0h23v23H0z"/></clipPath></defs></svg>